Coordinates
version=1
nRows=26
nColumns=24
inDegrees=yes

Units are S.I. units (second, meters, Newtons, ...)
Angles are in degrees.

endheader
time	pelvis_tilt	pelvis_list	pelvis_rotation	pelvis_tx	pelvis_ty	pelvis_tz	hip_flexion_r	hip_adduction_r	hip_rotation_r	knee_angle_r	ankle_angle_r	subtalar_angle_r	mtp_angle_r	hip_flexion_l	hip_adduction_l	hip_rotation_l	knee_angle_l	ankle_angle_l	subtalar_angle_l	mtp_angle_l	lumbar_extension	lumbar_bending	lumbar_rotation
      3.05000000	     -5.66898856	     -2.59651554	     -5.79353184	     -0.90341412	     -0.03694226	     -0.15147456	     -9.02912173	      7.30414350	      8.12714169	    -24.46636470	      3.01736636	     14.15169539	     19.67681668	     35.55012323	     -2.21922339	     -7.70843699	    -14.56830646	      6.01960236	     12.78221873	     -7.72964808	      4.55833007	      2.74844051	      8.05953393
      3.05500000	     -5.85040529	     -2.28043694	     -5.90861636	     -0.89541363	     -0.03771505	     -0.15178650	     -8.67042126	      6.81604554	      7.80674976	    -25.62641686	      2.16344608	     15.02362085	     20.08236008	     35.69167963	     -1.95828131	     -8.23052752	    -15.32204724	      5.47473165	     12.35451024	     -7.85379730	      4.98014950	      2.38363898	      8.08430345
      3.06000000	     -5.91334680	     -1.91781503	     -5.89894040	     -0.88739040	     -0.03832532	     -0.15243600	     -8.40343545	      6.20563739	      7.17879558	    -26.72254158	      1.04059447	     16.00347843	     21.28841870	     35.66404216	     -1.50794557	     -8.33241927	    -15.95409650	      4.61765143	     11.45671841	     -7.91397799	      5.26776442	      1.96453823	      7.99478417
      3.06500000	     -5.96040399	     -1.47472566	     -5.84450040	     -0.87909516	     -0.03879106	     -0.15310762	     -8.18558732	      5.49741402	      6.58851282	    -27.67978080	     -0.48089540	     16.78341095	     23.11274081	     35.58457255	     -0.94863355	     -8.44503412	    -16.52523643	      3.60947883	     10.51408542	     -7.74254122	      5.60016819	      1.44517808	      7.81282006
      3.07000000	     -6.04275644	     -1.00423578	     -5.84281886	     -0.87106644	     -0.03925516	     -0.15374026	     -7.78966767	      4.73792425	      6.01164752	    -28.86681404	     -1.85349001	     17.90380395	     24.47711937	     35.59522502	     -0.40982400	     -8.58955275	    -17.16956501	      2.56223183	      9.70910373	     -7.70182719	      5.91326795	      0.90989477	      7.73771795
      3.07500000	     -6.11564583	     -0.48670274	     -5.73409334	     -0.86270451	     -0.03959380	     -0.15449814	     -7.45285196	      3.90938361	      5.33553822	    -29.87358806	     -3.73162623	     18.75878170	     26.50377914	     35.54921771	      0.26987461	     -8.49315489	    -17.74155704	      1.48239655	      8.77470309	     -7.57577716	      6.28954641	      0.30609962	      7.50966264
      3.08000000	     -6.23698247	      0.04836037	     -5.68766762	     -0.85463599	     -0.03997071	     -0.15521886	     -6.92323538	      3.03900465	      4.73391121	    -31.12424965	     -5.39369866	     20.02907877	     27.89519270	     35.63275627	      0.91227908	     -8.47826193	    -18.44404666	      0.49262782	      8.01590195	     -7.68915785	      6.64925227	     -0.29545394	      7.36949845
      3.08500000	     -6.33939957	      0.61373592	     -5.53289747	     -0.84625969	     -0.04022343	     -0.15602228	     -6.46936822	      2.12862242	      4.04637124	    -32.17723150	     -7.62718780	     20.88680357	     29.97798714	     35.64568003	      1.68067229	     -8.18151062	    -19.09639802	     -0.39579488	      7.20508947	     -7.92625897	      7.05503559	     -0.95581890	      7.11115150
      3.09000000	     -6.51642211	      1.19807338	     -5.45639380	     -0.83803351	     -0.04056830	     -0.15679255	     -5.81025340	      1.17732463	      3.50638081	    -33.49641521	     -9.51928253	     22.28768749	     30.97719047	     35.78653955	      2.40433294	     -8.02969080	    -19.84832239	     -1.10950670	      6.55358310	     -8.23526041	      7.51431155	     -1.60480707	      6.93195898
      3.09500000	     -6.60834551	      1.73169401	     -5.25381743	     -0.82987151	     -0.04076901	     -0.15765826	     -5.26871359	      0.28050596	      2.83673608	    -34.60926818	    -12.09521673	     23.01324840	     33.04119609	     35.83438666	      3.18678778	     -7.57704697	    -20.61972071	     -1.66962161	      5.88651286	     -8.98361229	      7.84957203	     -2.23565838	      6.65650384
      3.10000000	     -6.78920364	      2.28088512	     -5.12311427	     -0.82182089	     -0.04110087	     -0.15853036	     -4.51148203	     -0.64564983	      2.32975429	    -36.00665030	    -14.26297978	     24.23838845	     33.71644238	     35.98752648	      3.93727439	     -7.23379658	    -21.40689543	     -2.13157712	      5.22775751	     -9.49868204	      8.26066081	     -2.84343440	      6.47786963
      3.10500000	     -6.97306986	      2.84095280	     -4.93656232	     -0.81365719	     -0.04139745	     -0.15939631	     -3.76038652	     -1.55864908	      1.88300087	    -37.36438693	    -16.60066756	     25.20449033	     34.26184639	     36.08534846	      4.73950427	     -6.79221813	    -22.11986768	     -2.45426196	      4.58411276	    -10.00902436	      8.70081548	     -3.48500934	      6.23087741
      3.11000000	     -7.08079870	      3.35687971	     -4.69939140	     -0.80561758	     -0.04162551	     -0.16031151	     -3.07996683	     -2.43262611	      1.38197558	    -38.64705965	    -19.22832456	     25.80254542	     35.27455557	     36.11337006	      5.52150926	     -6.40356019	    -22.90864692	     -2.36943712	      4.22344693	    -11.09760766	      9.01753292	     -4.09485100	      5.93123052
      3.11500000	     -7.19984339	      3.90097108	     -4.52337300	     -0.79770900	     -0.04185355	     -0.16110476	     -2.28186902	     -3.30677289	      1.03066502	    -40.16993929	    -21.51593267	     26.33817011	     34.91725066	     36.09088329	      6.28564908	     -6.12936651	    -23.53149310	     -2.49121138	      3.71431411	    -11.28774317	      9.32857790	     -4.72701916	      5.74478451
      3.12000000	     -7.31837226	      4.41178085	     -4.28588175	     -0.78977580	     -0.04208863	     -0.16206436	     -1.48760565	     -4.14646561	      0.67191710	    -41.67195889	    -23.79594250	     26.70872452	     34.46705525	     36.02271150	      7.06857248	     -5.81309310	    -24.10441141	     -2.45143035	      3.22755554	    -11.40512407	      9.64039868	     -5.31082461	      5.45286336
      3.12500000	     -7.43990061	      4.87955899	     -3.99576735	     -0.78211097	     -0.04230432	     -0.16307636	     -0.63524775	     -4.92147635	      0.31227583	    -43.23411958	    -26.01610205	     26.82509631	     33.83237889	     35.93511161	      7.84138742	     -5.42844713	    -24.62338448	     -2.40298891	      2.77673087	    -11.51882943	      9.88736730	     -5.86171638	      5.17534668
      3.13000000	     -7.53716671	      5.35949968	     -3.69328720	     -0.77446513	     -0.04246947	     -0.16413126	      0.22113377	     -5.70900498	     -0.05227860	    -44.83021969	    -28.11337236	     26.63767690	     32.97602352	     35.75970059	      8.62980850	     -5.13356450	    -25.04530755	     -2.22924918	      2.41925892	    -11.52632659	     10.10735409	     -6.42676026	      4.86276584
      3.13500000	     -7.64648124	      5.77867505	     -3.35608948	     -0.76692175	     -0.04260926	     -0.16527114	      1.12255488	     -6.42044300	     -0.42817412	    -46.47377359	    -30.01869093	     26.17598584	     31.68787598	     35.54823203	      9.38883331	     -4.78926886	    -25.39609058	     -1.98477619	      2.05381211	    -11.43485713	     10.31671947	     -6.91916828	      4.51746275
      3.14000000	     -7.71404208	      6.24510011	     -3.02537518	     -0.75947432	     -0.04265050	     -0.16637855	      2.02584277	     -7.18257310	     -0.80071560	    -48.16473662	    -31.65753697	     25.42863395	     30.28046571	     35.23470982	     10.17593017	     -4.54602836	    -25.63201044	     -1.73376412	      1.79958578	    -11.21648040	     10.46437070	     -7.46963575	      4.17940805
      3.14500000	     -7.76802304	      6.70824315	     -2.68179313	     -0.75213106	     -0.04262949	     -0.16752270	      2.94603470	     -7.94131130	     -1.17709503	    -49.87443116	    -33.00405897	     24.44844499	     28.81525039	     34.85709844	     10.96694119	     -4.31277276	    -25.77799447	     -1.47008249	      1.57207328	    -10.90187166	     10.57930749	     -8.01450560	      3.83070556
      3.15000000	     -7.83927133	      7.15257425	     -2.26804017	     -0.74490502	     -0.04262228	     -0.16872212	      3.90647230	     -8.68036486	     -1.60032411	    -51.67473485	    -33.68546697	     23.47983195	     26.79909593	     34.46912100	     11.75832832	     -4.08310567	    -25.86690875	     -1.24179464	      1.43626497	    -10.20243890	     10.68245591	     -8.55720697	      3.40143358
      3.15500000	     -7.85049673	      7.60203456	     -1.94998239	     -0.73776134	     -0.04239993	     -0.16989874	      4.83767459	     -9.42528467	     -1.93502658	    -53.33019904	    -34.48785947	     22.10921715	     25.70636140	     33.94828649	     12.52948127	     -3.86233039	    -25.83842726	     -0.99205015	      1.19356564	     -9.81072855	     10.71832202	     -9.06006107	      3.15184010
      3.16000000	     -7.89057467	      8.00861013	     -1.57115402	     -0.73073292	     -0.04218614	     -0.17102764	      5.80604782	    -10.08905370	     -2.27094601	    -55.03150093	    -34.57070232	     20.73846488	     24.23509722	     33.43379082	     13.26313553	     -3.62210294	    -25.77541289	     -0.73176146	      1.06643224	     -9.16151211	     10.75723759	     -9.55686051	      2.72958551
      3.16500000	     -7.87766132	      8.44417677	     -1.30427039	     -0.72378315	     -0.04176413	     -0.17207869	      6.76259409	    -10.77076079	     -2.47295809	    -56.59093232	    -34.67760808	     19.18879915	     23.69810942	     32.81105053	     13.97737157	     -3.45791816	    -25.61419987	     -0.44851196	      0.90090507	     -8.93734709	     10.74370831	    -10.04702212	      2.47861068
      3.17000000	     -7.88826966	      8.77366217	     -0.97816806	     -0.71692861	     -0.04132800	     -0.17313289	      7.73608516	    -11.31485640	     -2.74034538	    -58.12225991	    -34.26869643	     17.58302620	     22.88684929	     32.19582834	     14.60970676	     -3.15574624	    -25.46695036	     -0.08091009	      0.83559105	     -8.58248321	     10.73107727	    -10.42891996	      2.22362231
      3.17500000	     -7.88071129	      9.10450986	     -0.69705453	     -0.71012348	     -0.04076415	     -0.17407208	      8.71678054	    -11.82808986	     -2.91773777	    -59.58172282	    -33.55150952	     16.07391681	     22.27166832	     31.52451762	     15.19973735	     -2.94176818	    -25.24930219	      0.27054822	      0.83925156	     -8.25586325	     10.69945022	    -10.81777177	      1.95482498
